# xmcd
#
# Track frame offsets: 
#        150
#        10469
#        18852
#        29868
#        39513
#        50114
#        58748
#        70836
#        81303
#        91700
#        101885
#        112697
#        121401
#        132119
#        141881
#        152247
#        162848
#        173566
#        185115
#
# Disc length: 2623 seconds
#
# Revision: 0
# Processed by: cddbd v1.5.2PL0 Copyright (c) Steve Scherf et al.
# Submitted via: ExactAudioCopy v1.3
#
DISCID=050a3d13
DTITLE=Waylon Jennings - American Anthology
DYEAR=2013
DGENRE=Country
TTITLE0=White Lightning
TTITLE1=Abilene
TTITLE2=Big Mamou
TTITLE3=Heartaches By The Numbers
TTITLE4=The Only Daddy That'll Walk The Line
TTITLE5=Jole Blon
TTITLE6=Don't Think Twice (It's Alright)
TTITLE7=Money (That's What I Want)
TTITLE8=Lorena
TTITLE9=When Sin Stops (Love Begins)
TTITLE10=Sally Was A Good Old Girl
TTITLE11=Love's Gonna Live Here
TTITLE12=Nine Pound Hammer
TTITLE13=Rhythm And Blues
TTITLE14=Burning Memories
TTITLE15=I've Got A Tiger By The Tail
TTITLE16=Foolin' Around
TTITLE17=Dream Baby (How Long Must I Dream)
TTITLE18=Crying
EXTD=
EXTT0=
EXTT1=
EXTT2=
EXTT3=
EXTT4=
EXTT5=
EXTT6=
EXTT7=
EXTT8=
EXTT9=
EXTT10=
EXTT11=
EXTT12=
EXTT13=
EXTT14=
EXTT15=
EXTT16=
EXTT17=
EXTT18=
PLAYORDER=
